<?xml version="1.0" standalone="no"?>
<!DOCTYPE svg PUBLIC "-//W3C//DTD SVG 20010904//EN"
 "http://www.w3.org/TR/2001/REC-SVG-20010904/DTD/svg10.dtd">
<svg version="1.0" xmlns="http://www.w3.org/2000/svg"
 width="1021.000000pt" height="509.000000pt" viewBox="0 0 1021.000000 509.000000"
 preserveAspectRatio="xMidYMid meet">

<g transform="translate(0.000000,509.000000) scale(0.100000,-0.100000)"
fill="currentColor" stroke="none">
<path fill="param(fill) #ffffff" d="M911 4698 c-25 -26 -21 -14 -70 -208 -161 -629 -232 -907 -237 -922
-4 -15 -17 -18 -67 -18 -92 0 -229 -32 -283 -66 -60 -37 -84 -82 -84 -156 0
-93 56 -190 205 -354 l64 -72 -26 -128 c-22 -109 -27 -156 -27 -304 -1 -96 2
-187 6 -201 7 -24 15 -27 115 -45 163 -28 373 -24 578 11 139 23 178 26 295
22 120 -5 146 -9 237 -40 105 -36 221 -94 332 -166 130 -84 172 -82 343 17
170 97 214 118 326 155 95 31 101 32 267 31 115 -1 193 -6 240 -17 181 -41
384 -45 593 -13 104 16 136 10 146 -28 6 -26 -9 -86 -35 -137 -18 -35 -19 -36
-111 -50 -158 -24 -424 -18 -611 14 -329 56 -497 32 -767 -111 -58 -30 -118
-62 -134 -70 -83 -43 -138 -34 -285 48 -126 70 -251 122 -349 144 -108 24
-286 21 -467 -10 -183 -31 -404 -41 -530 -24 -166 22 -194 23 -211 9 -20 -16
-14 -77 15 -141 10 -23 38 -90 62 -148 23 -58 46 -109 50 -115 4 -5 16 -32 27
-60 83 -211 124 -311 131 -320 4 -5 22 -48 40 -95 92 -238 155 -391 165 -397
17 -11 90 -4 256 25 291 49 444 34 664 -65 55 -25 123 -54 150 -64 27 -11 67
-29 89 -41 93 -47 91 -47 287 42 300 136 362 153 540 152 69 0 149 -5 179 -11
74 -15 246 -39 301 -43 l45 -3 51 120 c29 66 67 162 84 212 l32 93 2997 3
2996 2 65 23 c185 63 319 197 375 375 l25 78 0 632 c0 703 1 690 -67 819 -64
123 -168 211 -312 267 l-66 26 -2788 5 -2789 5 -27 40 c-15 23 -48 51 -76 67
-53 28 -178 58 -243 58 -37 0 -39 2 -49 43 -6 23 -36 141 -67 262 -32 121 -89
343 -127 494 -79 310 -96 357 -133 367 -57 14 -101 -22 -238 -198 -108 -139
-132 -161 -187 -180 -47 -15 -1286 -24 -1391 -9 -107 14 -134 33 -230 158 -47
60 -100 128 -119 149 -74 84 -131 105 -170 62z m-31 -1252 c282 -36 625 -106
753 -156 208 -80 222 -108 140 -277 -138 -285 -262 -400 -444 -411 -101 -6
-175 9 -313 63 -242 93 -336 154 -486 317 -161 174 -199 235 -200 315 0 72 69
130 183 152 68 14 244 12 367 -3z m2735 3 c118 -22 195 -84 195 -156 0 -73
-57 -171 -177 -305 -163 -183 -376 -306 -638 -369 -145 -34 -274 -22 -365 37
-45 28 -128 115 -170 178 -48 72 -138 251 -145 290 -14 74 39 116 225 179 139
47 558 129 770 150 82 9 251 6 305 -4z m4597 -834 l48 -80 0 -307 0 -308 -85
0 -85 0 0 391 0 390 37 -3 c35 -3 40 -8 85 -83z m308 -95 c0 -129 0 -130 19
-111 83 83 256 72 321 -19 29 -41 50 -112 50 -170 0 -111 -66 -285 -142 -374
l-39 -46 -32 16 c-18 9 -33 17 -34 18 -1 1 9 32 23 69 47 131 67 316 43 398
-23 75 -92 106 -140 63 -50 -44 -63 -97 -67 -276 l-4 -168 -84 0 -84 0 0 365
0 365 85 0 85 0 0 -130z m-4190 56 c0 -2 32 -107 70 -232 39 -126 71 -232 73
-237 1 -4 35 101 76 233 l74 240 91 0 91 0 44 -307 c23 -170 45 -318 48 -330
5 -23 4 -23 -95 -23 l-101 0 -5 33 c-3 17 -13 95 -21 172 -28 259 -22 255 -75
55 -26 -96 -53 -194 -59 -218 l-12 -43 -91 3 -92 3 -67 220 c-48 159 -69 213
-73 195 -3 -14 -12 -97 -21 -185 -8 -88 -18 -177 -21 -197 l-6 -38 -62 0 -62
0 55 330 56 330 93 0 c50 0 92 -2 92 -4z m1970 -41 l0 -45 -150 0 -150 0 0
-95 0 -95 115 0 115 0 0 -50 0 -50 -115 0 -115 0 0 -95 0 -95 150 0 150 0 0
-45 0 -45 -245 0 -245 0 0 330 0 330 245 0 245 0 0 -45z m-4110 -20 c10 -12 8
-22 -11 -52 -35 -59 -80 -113 -92 -113 -7 0 -34 32 -60 70 -69 100 -63 110 57
110 70 0 97 -4 106 -15z m3111 -55 c144 -27 217 -115 188 -225 -25 -93 -129
-142 -281 -132 -48 3 -88 4 -88 1 0 -3 6 -19 14 -37 22 -52 59 -79 114 -85 61
-5 106 16 134 64 11 19 21 34 23 34 1 0 19 -7 39 -15 36 -15 36 -16 21 -45
-34 -66 -128 -110 -234 -110 -85 0 -130 13 -183 53 -121 92 -142 289 -42 405
70 83 174 115 295 92z m1410 -15 c45 -16 109 -60 109 -75 0 -5 -21 -26 -47
-47 -36 -29 -47 -35 -51 -23 -3 8 -22 32 -42 53 -35 34 -42 37 -97 37 -67 0
-103 -19 -103 -55 0 -28 39 -61 83 -70 84 -17 199 -58 226 -80 62 -53 63 -140
4 -206 -48 -54 -110 -72 -226 -67 -96 3 -149 21 -210 70 l-28 23 51 39 51 39
16 -23 c8 -12 36 -35 61 -51 73 -46 175 -36 189 19 9 39 -24 61 -143 94 -127
34 -160 51 -192 99 -45 64 -9 174 69 215 70 36 193 39 280 9z m575 -9 c35 -16
63 -39 83 -67 37 -51 38 -55 7 -63 -13 -3 -31 -9 -39 -12 -11 -4 -21 5 -32 26
-34 65 -127 90 -191 51 -43 -26 -67 -83 -72 -166 -5 -91 11 -150 53 -192 27
-27 41 -33 75 -33 56 0 105 25 130 65 20 32 23 33 53 23 18 -6 35 -14 39 -17
14 -12 -42 -80 -89 -108 -62 -36 -189 -45 -260 -18 -172 66 -232 292 -118 441
74 97 233 128 361 70z m572 4 c56 -25 116 -80 145 -135 17 -31 22 -57 22 -120
0 -69 -4 -86 -27 -127 -58 -98 -148 -148 -267 -148 -82 0 -123 11 -184 50
-125 79 -159 251 -74 377 80 118 248 163 385 103z m1521 -1 c57 -25 89 -54
107 -96 42 -98 -12 -193 -128 -228 -58 -17 -157 -20 -205 -6 l-31 9 10 -31
c27 -80 76 -113 155 -104 37 4 54 12 79 39 17 19 33 40 35 46 6 16 79 -7 79
-24 0 -22 -61 -84 -104 -106 -29 -16 -65 -23 -127 -26 -108 -5 -169 18 -233
89 -111 124 -85 336 52 421 83 51 217 59 311 17z"/>
<path d="M979 3367 c-74 -31 -122 -69 -159 -125 -145 -218 -5 -513 250 -529
l65 -4 -38 15 c-52 19 -73 41 -93 93 -14 37 -15 50 -5 85 16 53 56 93 109 109
35 10 48 9 87 -5 100 -39 131 -155 64 -240 -45 -58 43 -4 100 61 60 68 84 140
79 238 -6 100 -30 158 -95 223 -68 68 -130 94 -228 99 -67 3 -89 0 -136 -20z"/>
<path d="M2923 3371 c-140 -52 -223 -171 -223 -321 0 -118 60 -231 154 -289
46 -29 49 -27 21 15 -36 53 -41 94 -17 146 36 83 115 115 195 80 126 -56 121
-230 -8 -278 l-40 -15 66 4 c122 8 226 84 281 203 34 74 33 199 -3 275 -56
119 -164 190 -299 196 -56 3 -88 -1 -127 -16z"/>
<path d="M5182 2365 c-34 -28 -57 -79 -67 -147 l-7 -45 57 -8 c74 -9 128 1
159 30 22 20 26 33 26 80 0 49 -4 60 -29 86 -39 38 -96 40 -139 4z"/>
<path d="M7682 2384 c-48 -24 -74 -83 -80 -174 -5 -95 10 -154 53 -197 63 -63
146 -38 182 55 21 55 24 177 5 233 -26 77 -98 114 -160 83z"/>
<path d="M9188 2367 c-36 -30 -59 -79 -65 -142 l-6 -53 57 -7 c71 -9 119 0
152 28 50 43 40 157 -15 187 -34 18 -94 12 -123 -13z"/>
</g>
</svg>
