<?xml version="1.0" standalone="no"?>
<!DOCTYPE svg PUBLIC "-//W3C//DTD SVG 20010904//EN"
 "http://www.w3.org/TR/2001/REC-SVG-20010904/DTD/svg10.dtd">
<svg version="1.0" xmlns="http://www.w3.org/2000/svg"
 width="890.000000pt" height="961.000000pt" viewBox="0 0 890.000000 961.000000"
 preserveAspectRatio="xMidYMid meet">

<g transform="translate(0.000000,961.000000) scale(0.100000,-0.100000)"
fill="currentColor" stroke="none">
<path fill="#000" d="M1902 9519 c-76 -16 -119 -92 -177 -314 -39 -149 -103 -405 -131
-520 -9 -38 -38 -151 -65 -250 -26 -99 -109 -421 -184 -715 -185 -733 -215
-844 -226 -851 -6 -3 -105 -9 -221 -11 -133 -4 -214 -10 -221 -17 -6 -6 -28
-11 -49 -11 -21 0 -38 -4 -38 -10 0 -5 -15 -10 -34 -10 -19 0 -38 -5 -41 -10
-4 -6 -12 -10 -18 -9 -16 3 -112 -36 -127 -51 -3 -3 -18 -12 -34 -20 -63 -33
-131 -105 -152 -162 -3 -10 -10 -18 -15 -18 -5 0 -9 -11 -9 -24 0 -14 -5 -28
-10 -31 -13 -8 -13 -192 0 -200 5 -3 10 -20 10 -37 0 -28 16 -73 42 -123 40
-74 57 -104 76 -135 12 -19 25 -42 29 -50 4 -8 15 -21 25 -28 10 -7 18 -19 18
-26 0 -7 11 -23 25 -36 14 -13 25 -28 25 -33 0 -16 135 -170 262 -300 54 -55
98 -105 98 -112 0 -7 -7 -46 -14 -86 -8 -41 -29 -148 -46 -239 -17 -91 -35
-186 -40 -211 -32 -161 -38 -702 -10 -859 16 -92 29 -115 65 -116 47 -1 156
-14 200 -24 85 -19 257 -39 420 -50 228 -14 523 7 820 60 28 4 82 13 120 19
144 23 252 42 281 50 38 11 383 4 494 -10 90 -12 215 -35 265 -50 88 -26 195
-63 232 -80 24 -10 46 -19 49 -19 16 0 307 -144 346 -171 14 -11 30 -19 35
-19 4 -1 40 -21 78 -45 68 -43 151 -93 265 -161 32 -20 90 -42 141 -53 90 -21
94 -21 213 16 27 9 173 84 223 116 24 15 47 27 53 27 5 0 10 5 10 10 0 6 5 10
10 10 6 0 34 15 63 33 185 118 498 263 672 312 33 9 71 21 85 25 103 33 317
60 477 60 133 0 373 -22 508 -46 600 -107 902 -118 1330 -48 55 8 138 21 184
27 l84 12 18 85 c43 202 51 272 45 396 -14 282 -55 515 -166 959 -22 87 -40
161 -40 163 0 2 35 41 78 87 102 112 152 170 152 180 0 4 8 15 18 24 37 34 99
120 121 168 5 11 15 24 20 28 6 3 19 23 30 43 10 20 31 62 46 92 44 87 45 89
45 110 0 11 5 20 11 20 8 0 10 14 6 45 -4 25 -2 47 3 50 12 8 13 72 1 79 -4 3
-11 27 -14 54 -7 63 -36 114 -99 177 -51 51 -67 61 -130 92 -21 10 -38 21 -38
25 0 5 -10 8 -23 8 -13 0 -27 3 -31 7 -3 4 -14 8 -24 10 -57 9 -83 16 -88 24
-3 5 -20 9 -38 9 -17 0 -37 5 -42 10 -6 6 -83 13 -173 17 -135 5 -163 9 -171
22 -4 9 -17 52 -28 96 -11 44 -44 175 -75 290 -31 116 -72 278 -92 360 -20 83
-56 220 -80 305 -24 85 -76 283 -115 440 -71 279 -80 318 -121 490 -36 149
-117 445 -138 501 -44 116 -91 159 -171 159 -113 0 -241 -128 -594 -597 -43
-56 -108 -130 -145 -165 -58 -55 -79 -68 -148 -91 -52 -17 -122 -30 -195 -37
-152 -13 -2814 -13 -2966 0 -72 7 -143 20 -194 37 -73 24 -88 34 -158 102 -42
42 -124 139 -181 216 -329 446 -457 562 -587 534z m-207 -2878 c178 -21 283
-35 375 -51 30 -5 84 -14 120 -20 65 -10 308 -54 470 -85 280 -54 652 -143
730 -175 25 -11 90 -36 145 -56 214 -79 310 -139 346 -219 38 -83 19 -160 -97
-384 -41 -79 -74 -148 -74 -153 0 -12 -80 -144 -168 -276 -98 -148 -278 -333
-377 -389 -159 -90 -265 -117 -460 -117 -220 -1 -311 21 -690 167 -242 93
-463 199 -587 283 -100 68 -296 233 -359 301 -24 27 -96 104 -160 173 -298
318 -401 495 -394 675 7 180 211 308 550 345 118 13 436 3 630 -19z m6167 14
c283 -37 447 -121 513 -261 22 -47 25 -62 20 -126 -7 -94 -19 -137 -62 -223
-74 -145 -189 -296 -388 -509 -134 -143 -260 -249 -461 -388 -68 -48 -382
-210 -469 -243 -216 -82 -365 -127 -551 -166 -89 -19 -138 -23 -269 -23 -144
1 -169 4 -248 27 -128 39 -232 94 -326 172 -56 47 -201 219 -262 311 -91 137
-169 269 -169 286 0 8 -4 18 -9 23 -23 25 -153 300 -167 355 -13 50 -13 70 -4
110 19 79 66 123 194 184 61 30 129 59 151 66 22 7 77 28 123 46 261 107 1371
318 1912 363 155 13 358 12 472 -4z m-3126 -2140 l16 -35 -52 -82 c-29 -46
-78 -118 -109 -160 -51 -71 -59 -77 -91 -77 -32 0 -40 6 -91 77 -31 42 -80
114 -109 160 l-52 82 16 35 17 35 219 0 219 0 17 -35z"/>
<path fill="#000" d="M2110 6495 c-216 -44 -406 -180 -520 -374 -17 -30 -46 -95 -63 -145
-30 -87 -32 -98 -32 -241 0 -143 2 -155 32 -240 46 -133 94 -208 197 -310 76
-76 106 -98 186 -137 52 -26 124 -54 159 -63 85 -22 222 -31 247 -17 18 11 18
11 -3 12 -52 0 -138 44 -188 94 -79 79 -100 131 -100 246 0 85 3 101 28 148
36 68 98 131 162 162 42 21 64 25 145 25 84 0 102 -3 152 -28 72 -35 140 -110
168 -185 18 -47 21 -72 18 -142 -5 -105 -33 -163 -108 -234 -46 -43 -49 -48
-24 -42 15 4 57 25 93 46 170 100 296 266 353 466 31 112 31 287 -1 399 -97
344 -405 578 -754 574 -45 0 -111 -7 -147 -14z"/>
<path fill="#000" d="M6500 6495 c-295 -60 -527 -282 -600 -573 -27 -105 -27 -269 0 -375
53 -210 206 -404 391 -498 82 -41 89 -36 31 19 -76 70 -107 144 -107 252 0 67
5 95 23 134 34 75 84 129 154 167 59 32 69 34 158 34 84 0 102 -3 151 -28 165
-80 238 -280 164 -445 -36 -80 -110 -151 -188 -180 -32 -12 -68 -22 -80 -22
-18 0 -19 -2 -7 -10 22 -14 117 -12 202 4 303 59 539 282 613 581 24 95 24
257 1 355 -96 405 -503 667 -906 585z"/>
<path fill="param(fill) #ffffff" d="M2690 3474 c-97 -13 -270 -37 -310 -44 -50 -9 -219 -36 -320 -51
-412 -61 -796 -59 -1195 6 -228 37 -315 12 -315 -89 0 -23 31 -130 50 -173 11
-25 17 -39 53 -128 148 -362 167 -405 239 -565 34 -75 38 -86 68 -160 12 -30
38 -88 56 -128 19 -40 34 -77 34 -83 0 -11 153 -387 177 -434 22 -44 163 -387
163 -397 0 -11 167 -443 180 -467 5 -9 28 -63 51 -121 63 -157 68 -164 115
-168 60 -4 239 15 434 47 74 12 122 19 200 32 30 4 84 13 120 19 138 23 222
29 410 29 237 1 307 -9 550 -72 88 -24 308 -113 457 -186 76 -37 163 -76 193
-85 30 -10 127 -52 215 -95 152 -72 163 -76 230 -76 67 0 78 4 230 76 88 43
185 85 215 94 30 10 111 46 180 80 69 34 161 77 205 95 44 17 89 36 100 41 31
13 172 56 255 77 155 40 228 47 480 46 239 0 285 -4 505 -44 52 -9 211 -34
325 -51 36 -5 106 -14 155 -19 50 -5 111 -12 136 -15 42 -6 48 -4 67 20 12 15
40 75 62 133 23 59 50 125 61 147 31 67 179 448 179 462 0 7 4 21 9 31 14 28
28 62 72 172 22 58 55 137 73 175 18 39 47 104 64 145 17 41 51 124 76 183 26
60 46 114 46 120 0 5 13 39 30 74 16 34 30 66 30 69 0 6 8 24 49 116 11 26 21
50 21 53 0 2 20 46 43 97 24 51 74 167 112 258 37 91 72 169 76 174 5 6 9 18
9 28 0 9 12 43 26 75 14 32 30 67 35 78 30 68 69 194 69 224 0 44 -22 78 -59
92 -40 16 -154 12 -281 -9 -63 -11 -160 -26 -215 -32 -109 -14 -583 -18 -680
-6 -33 4 -94 11 -135 16 -41 5 -104 14 -140 19 -119 19 -254 40 -315 50 -33 6
-107 18 -165 27 -77 13 -167 18 -335 18 -227 1 -343 -9 -460 -40 -27 -7 -61
-16 -75 -19 -45 -12 -125 -36 -145 -45 -11 -4 -69 -27 -130 -50 -112 -43 -325
-149 -518 -258 -177 -100 -225 -117 -342 -116 -90 0 -108 3 -175 32 -42 18
-132 64 -200 103 -271 153 -573 288 -740 329 -220 55 -275 62 -495 65 -115 2
-226 1 -245 -1z"/>
</g>
</svg>
